<mxfile host="app.diagrams.net" modified="2024-03-02T12:42:58.727Z" agent="Mozilla/5.0 (Windows NT 10.0; Win64; x64) AppleWebKit/537.36 (KHTML, like Gecko) Chrome/122.0.0.0 Safari/537.36" version="24.0.0" etag="HwJpUJ0YewE9nKNr0DNX" type="github">
  <diagram name="第 1 页" id="Ac_nnnejUr_ARH8N8ATA">
    <mxGraphModel>
      <root>
        <mxCell id="0" />
        <mxCell id="1" parent="0" />
      </root>
    </mxGraphModel>
  </diagram>
</mxfile>
